<svg width="128" height="128" viewBox="0 0 128 128" fill="none" xmlns="http://www.w3.org/2000/svg">
<path d="M123.999 84.978C123.999 86.7397 123.496 88.7528 122.238 90.011C121.483 90.7659 120.728 91.2693 119.973 91.5207V90.011C119.973 80.4485 112.172 72.6472 102.609 72.6472C93.0462 72.6472 85.2449 80.4481 85.2449 90.011C85.2449 90.7659 85.2449 91.2693 85.4964 92.0241H39.1929C39.1929 91.2693 39.4444 90.7659 39.4444 90.011C39.4444 80.4485 31.6435 72.6472 22.0806 72.6472C12.7694 72.6472 5.22008 79.9453 4.96843 89.0044C3.20678 86.7394 2.70338 83.72 3.96166 80.9515C12.266 62.8328 21.3255 59.058 27.8684 53.0185C38.9409 42.9525 73.6685 45.469 77.1916 49.7471C77.4431 50.2505 78.9533 52.0122 83.9863 59.0583C84.993 60.3165 86.5028 61.3233 88.7678 61.3233C103.615 61.5748 114.184 66.8597 119.721 72.6475C122.238 75.164 123.749 79.1902 124 84.9784L123.999 84.978ZM50.266 51.5087C42.465 52.0121 35.4187 53.2703 29.8824 58.3033V63.5877C29.8824 65.0974 31.1406 66.1042 32.3989 66.1042H50.266V51.5087ZM81.4705 63.8395C80.9671 63.3361 80.4637 62.8327 79.9608 62.3298C79.7093 62.0783 73.6696 53.5221 73.4181 53.2706C71.6565 52.5158 64.359 51.2575 55.2994 51.2575V65.8532H79.7094C80.4642 65.8528 81.4706 65.0979 81.4706 63.8397L81.4705 63.8395Z" fill="white"/>
<path d="M102.609 102.09C95.8144 102.09 90.2782 96.5538 90.2782 89.7593C90.2782 82.9649 95.8146 77.4285 102.609 77.4285C109.403 77.4285 114.94 82.9649 114.94 89.7593C114.94 96.5544 109.403 102.09 102.609 102.09Z" fill="white"/>
<path d="M10.0021 90.011C10.0021 83.2164 15.5384 77.6802 22.3329 77.6802C29.1275 77.6802 34.6637 83.2166 34.6637 90.011C34.6637 96.8054 29.1273 102.342 22.3329 102.342C15.2864 102.09 10.0021 96.554 10.0021 90.011Z" fill="white"/>
</svg>
