<svg width="128" height="128" viewBox="0 0 128 128" fill="none" xmlns="http://www.w3.org/2000/svg">
<path d="M19.545 81.9965C17.7091 81.9965 15.9483 82.7258 14.6505 84.0242C13.3521 85.3221 12.6228 87.0829 12.6228 88.9187C12.6228 90.7545 13.352 92.5154 14.6505 93.8132C15.9484 95.1116 17.7091 95.8408 19.545 95.8408C21.3808 95.8408 23.1417 95.1116 24.4395 93.8132C25.7379 92.5152 26.4671 90.7545 26.4671 88.9187C26.4652 87.0834 25.735 85.324 24.4376 84.026C23.1397 82.7286 21.3803 81.9984 19.545 81.9965Z" fill="white"/>
<path d="M97.9959 81.9965C96.1601 81.9965 94.3992 82.7258 93.1014 84.0242C91.803 85.3221 91.0737 87.0829 91.0737 88.9187C91.0737 90.7545 91.803 92.5154 93.1014 93.8132C94.3993 95.1116 96.1601 95.8408 97.9959 95.8408C99.8317 95.8408 101.593 95.1116 102.89 93.8132C104.189 92.5152 104.918 90.7545 104.918 88.9187C104.916 87.0834 104.186 85.324 102.889 84.026C101.591 82.7286 99.8312 81.9984 97.9959 81.9965Z" fill="white"/>
<path d="M122.678 93.5335C122.847 93.5335 123.014 93.5152 123.179 93.4787C124.416 93.2037 127.293 92.187 127.293 88.6856V86.7772C127.295 85.5557 126.887 84.3693 126.135 83.4064C125.384 82.444 124.332 81.7605 123.146 81.4657C123.107 81.4561 123.067 81.4475 123.027 81.4393L105.83 77.5167C103.526 75.9237 100.791 75.0714 97.9895 75.0742C97.441 75.0752 96.893 75.1088 96.3484 75.1747C96.2498 75.1444 96.1489 75.1204 96.0474 75.1036L85.9993 73.4937C85.9416 73.4845 85.8839 73.4773 85.8262 73.4725C80.4938 73.0312 72.5148 73.7403 65.2161 74.9349C64.1797 70.9412 62.2246 68.1098 59.3813 66.508C56.8557 65.0871 54.1608 64.9717 52.1038 65.2073L51.8188 63.2095C51.7399 62.6601 51.465 62.1573 51.0453 61.7938C50.6257 61.4299 50.0892 61.23 49.534 61.23C48.8605 61.23 33.3183 61.3847 17.2306 74.3802V72.1896C17.2306 65.8444 20.0605 65.8444 21.2685 65.8444H21.8453C22.4573 65.8444 23.0442 65.6011 23.4769 65.1685C23.9095 64.7359 24.1527 64.1489 24.1527 63.537V54.3074C24.1527 53.6955 23.9095 53.1085 23.4769 52.6759C23.0442 52.2432 22.4573 52 21.8453 52H11.96C9.05419 52.0034 6.26847 53.159 4.21397 55.214C2.15898 57.2685 1.00332 60.0542 1 62.96V86.611C1 87.0394 1.11921 87.4595 1.34467 87.8239C1.56963 88.1887 1.89219 88.4829 2.27531 88.6747L6.29433 92.9526C7.56579 97.1346 10.7389 100.47 14.8528 101.948C18.9667 103.426 23.5367 102.872 27.1786 100.455H72.6076C72.8557 100.455 73.1018 100.416 73.3373 100.337L86.1393 96.0699C87.955 99.0806 90.8484 101.287 94.232 102.243C97.6157 103.197 101.236 102.829 104.358 101.211C107.48 99.5934 109.868 96.8482 111.04 93.5332H111.834V100.455C111.834 101.067 112.077 101.654 112.509 102.087C112.942 102.52 113.529 102.763 114.141 102.763H124.985C125.81 102.763 126.571 102.323 126.984 101.609C127.395 100.895 127.395 100.016 126.984 99.3017C126.571 98.5878 125.81 98.148 124.985 98.148H116.448V93.5332L122.678 93.5335ZM57.1189 70.531C58.7562 71.4539 59.943 73.2085 60.6617 75.7611C58.1452 76.2648 55.8195 76.8143 53.8429 77.3762L52.7565 69.7719C54.0497 69.6397 55.6764 69.7191 57.1189 70.531ZM19.5387 98.1482C17.0909 98.1482 14.7431 97.1758 13.0127 95.4447C11.2817 93.7142 10.3091 91.3664 10.3091 88.9187C10.3091 86.471 11.2816 84.1231 13.0127 82.3927C14.7431 80.6617 17.091 79.6891 19.5387 79.6891C21.9864 79.6891 24.3342 80.6616 26.0647 82.3927C27.7957 84.1231 28.7682 86.471 28.7682 88.9187C28.7653 91.3655 27.7924 93.7118 26.0619 95.4419C24.3318 97.1724 21.9855 98.1454 19.5387 98.1482ZM78.2558 88.675L69.0263 93.2898C68.7056 93.4499 68.3523 93.5335 67.9942 93.5335H32.5897C33.1155 92.052 33.3838 90.4911 33.3833 88.9188H67.4489L76.1915 84.5476C76.739 84.2722 77.3731 84.226 77.9548 84.4193C78.5364 84.6125 79.0171 85.0293 79.2916 85.5773C79.5656 86.1253 79.6103 86.7603 79.4156 87.3415C79.2214 87.9227 78.8036 88.4024 78.2547 88.6755L78.2558 88.675ZM97.9898 98.1482C95.542 98.1482 93.1943 97.1758 91.4638 95.4447C89.7328 93.7142 88.7603 91.3664 88.7603 88.9187C88.7603 86.471 89.7327 84.1231 91.4638 82.3927C93.1943 80.6617 95.5421 79.6891 97.9898 79.6891C100.437 79.6891 102.785 80.6616 104.516 82.3927C106.247 84.1231 107.219 86.471 107.219 88.9187C107.216 91.3655 106.244 93.7118 104.513 95.4419C102.783 97.1724 100.437 98.1454 97.9898 98.1482Z" fill="white"/>
</svg>
