<svg width="128" height="128" viewBox="0 0 128 128" fill="none" xmlns="http://www.w3.org/2000/svg">
<path d="M63.4981 10.0007C56.0108 10.0007 45.6413 21.2895 41.9247 36.8714C39.1724 38.9711 36.8055 40.3447 35.0883 40.9789C32.5377 41.9211 31.9278 41.5003 31.7628 41.3861C31.5967 41.272 30.8536 40.5178 30.6492 37.8972C30.4447 35.276 30.9328 31.223 32.4877 26.3172C32.5415 26.1531 32.5876 25.9871 32.6266 25.8192C32.6266 25.8192 41.2679 18.8569 39.2177 16.1664C37.1669 13.4765 34.1698 20.8056 31.7738 19.139C29.3777 17.4717 33.7246 10.8203 30.8567 10.0525C27.9881 9.28467 28.4211 17.2176 25.5116 17.4641C22.6022 17.7105 23.6738 9.86389 20.5515 11.1686C17.4299 12.474 21.4309 22.82 21.4309 22.82C19.554 28.7426 18.7161 34.0492 19.0868 38.798C19.4574 43.5468 21.1921 48.1725 25.1755 50.9207C29.1591 53.669 34.373 53.5963 39.1126 51.8448C39.5857 51.6691 40.0601 51.4667 40.5359 51.2605C40.5612 57.0607 40.6923 62.5248 41.3854 67.3443C38.2955 66.5538 35.12 65.9682 31.9102 65.9033C27.2238 65.8093 21.2778 67.0388 18.0977 72.2513C16.5336 74.8154 16.0813 78.3621 16.8523 81.085C17.6233 83.8079 19.105 85.7093 20.6197 87.3007C23.6485 90.4841 27.2589 92.7434 30.6271 94.9917C33.9881 97.2355 37.0974 99.441 38.5201 100.917C38.2456 101.085 38.267 101.298 36.2097 101.487C33.3074 101.753 29.0527 101.309 25.2587 100.574C25.2587 100.574 16.4358 91.0923 13.4698 93.6979C10.5039 96.3041 19.2926 99.1932 17.5468 102.117C15.801 105.04 7.6931 100.532 7.03385 103.932C6.37382 107.332 15.5785 106.173 16.1048 109.537C16.6305 112.901 7.40186 112.296 9.17824 115.821C10.9551 119.345 22.685 113.848 22.685 113.848C27.1742 114.719 32.3212 115.424 37.456 114.953C42.5907 114.481 48.873 112.467 51.7097 106.45C53.0071 103.7 53.0908 100.281 52.212 97.6771C51.3333 95.0733 49.8419 93.1811 48.2934 91.5703C45.1964 88.348 41.5225 86.0082 38.1465 83.7548C35.7238 82.1374 34.1656 80.871 32.6125 79.6168C35.0254 79.7906 38.1997 80.3787 41.5212 81.4273C41.5212 81.4273 52.7337 85.2897 63.5017 85.2897C74.2703 85.2897 85.4788 81.4273 85.4788 81.4273C88.8003 80.3787 91.9746 79.7905 94.3875 79.6168C92.8344 80.8709 91.2801 82.1375 88.8575 83.7548C85.4815 86.0082 81.8036 88.348 78.7072 91.5703C77.1587 93.1811 75.6713 95.0735 74.7926 97.6771C73.9139 100.281 73.9976 103.699 75.2943 106.45C78.131 112.467 84.4133 114.481 89.548 114.953C94.6828 115.424 99.83 114.719 104.319 113.848C104.319 113.848 116.045 119.345 117.822 115.821C119.598 112.296 110.37 112.901 110.895 109.537C111.422 106.173 120.626 107.332 119.966 103.932C119.307 100.532 111.203 105.041 109.457 102.117C107.711 99.1932 116.496 96.3041 113.53 93.6979C110.564 91.0916 101.741 100.574 101.741 100.574C97.948 101.31 93.6893 101.753 90.7869 101.487C88.7296 101.297 88.7517 101.085 88.4766 100.917C89.8998 99.4415 93.0084 97.236 96.3696 94.9917C99.7378 92.7434 103.348 90.4841 106.377 87.3007C107.892 85.7093 109.377 83.8079 110.148 81.085C110.919 78.3621 110.462 74.8154 108.898 72.2513C105.718 67.0382 99.7768 65.8086 95.0898 65.9033C91.8786 65.9688 88.7025 66.5531 85.6112 67.3443C86.305 62.5254 86.4361 57.0607 86.4608 51.2605C86.9378 51.4674 87.4135 51.6697 87.8879 51.8448C92.6274 53.5964 97.8454 53.6689 101.828 50.9207C105.812 48.1724 107.543 43.5468 107.913 38.798C108.284 34.0492 107.446 28.7426 105.569 22.82C105.569 22.82 109.571 12.4734 106.448 11.1686C103.326 9.86382 104.397 17.7105 101.488 17.4641C98.5787 17.2177 99.0117 9.28417 96.1431 10.0525C93.2745 10.8203 97.6221 17.4717 95.2261 19.139C92.83 20.8062 89.833 13.4771 87.7821 16.1664C85.7313 18.8563 94.3726 25.8192 94.3726 25.8192H94.3713C94.4103 25.9871 94.4563 26.1531 94.5102 26.3172C96.0645 31.223 96.5532 35.276 96.3487 37.8972C96.1443 40.5184 95.4012 41.2719 95.2351 41.3861C95.0689 41.5003 94.4595 41.9211 91.9096 40.9789C90.191 40.344 87.8235 38.9693 85.0692 36.8674C81.3531 21.2868 70.9861 10 63.5008 10L63.4981 10.0007Z" fill="white"/>
</svg>
