<svg width="128" height="128" viewBox="0 0 128 128" fill="none" xmlns="http://www.w3.org/2000/svg">
<path d="M42.947 72.535L36.872 88H33.122L27.047 72.535H30.482C30.782 72.535 31.032 72.605 31.232 72.745C31.432 72.885 31.572 73.065 31.652 73.285L34.247 80.935C34.417 81.455 34.567 81.965 34.697 82.465C34.827 82.955 34.942 83.45 35.042 83.95C35.152 83.45 35.272 82.955 35.402 82.465C35.542 81.965 35.702 81.455 35.882 80.935L38.567 73.285C38.637 73.065 38.772 72.885 38.972 72.745C39.172 72.605 39.407 72.535 39.677 72.535H42.947Z" fill="white"/>
<path d="M42.947 17.535L36.872 33H33.122L27.047 17.535H30.482C30.782 17.535 31.032 17.605 31.232 17.745C31.432 17.885 31.572 18.065 31.652 18.285L34.247 25.935C34.417 26.455 34.567 26.965 34.697 27.465C34.827 27.955 34.942 28.45 35.042 28.95C35.152 28.45 35.272 27.955 35.402 27.465C35.542 26.965 35.702 26.455 35.882 25.935L38.567 18.285C38.637 18.065 38.772 17.885 38.972 17.745C39.172 17.605 39.407 17.535 39.677 17.535H42.947Z" fill="white"/>
<path d="M98.947 96.535L92.872 112H89.122L83.047 96.535H86.482C86.782 96.535 87.032 96.605 87.232 96.745C87.432 96.885 87.572 97.065 87.652 97.285L90.247 104.935C90.417 105.455 90.567 105.965 90.697 106.465C90.827 106.955 90.942 107.45 91.042 107.95C91.152 107.45 91.272 106.955 91.402 106.465C91.542 105.965 91.702 105.455 91.882 104.935L94.567 97.285C94.637 97.065 94.772 96.885 94.972 96.745C95.172 96.605 95.407 96.535 95.677 96.535H98.947Z" fill="white"/>
<path d="M98.947 41.535L92.872 57H89.122L83.047 41.535H86.482C86.782 41.535 87.032 41.605 87.232 41.745C87.432 41.885 87.572 42.065 87.652 42.285L90.247 49.935C90.417 50.455 90.567 50.965 90.697 51.465C90.827 51.955 90.942 52.45 91.042 52.95C91.152 52.45 91.272 51.955 91.402 51.465C91.542 50.965 91.702 50.455 91.882 49.935L94.567 42.285C94.637 42.065 94.772 41.885 94.972 41.745C95.172 41.605 95.407 41.535 95.677 41.535H98.947Z" fill="white"/>
</svg>
