<svg width="128" height="128" viewBox="0 0 128 128" fill="none" xmlns="http://www.w3.org/2000/svg">
<g clip-path="url(#clip0_1_10)">
<path d="M35.2 102.4C19.968 102.4 19.2 70.4128 19.2 64C19.2 57.5872 19.968 25.6 35.2 25.6C50.432 25.6 51.2 57.5872 51.2 64C51.2 70.4128 50.432 102.4 35.2 102.4ZM164.16 3.32833e-06L220.8 8.5252e-07C240.896 -2.59042e-08 256 27.52 256 64C256 100.48 240.896 128 220.8 128L35.2 128C15.488 128 -1.22811e-06 99.904 -2.79753e-06 64C-4.36694e-06 28.096 15.488 9.82699e-06 35.2 8.96535e-06L164.16 3.32833e-06ZM35.2 115.2C45.824 115.2 57.6 94.144 57.6 64C57.6 33.856 45.824 12.8 35.2 12.8C24.576 12.8 12.8 33.856 12.8 64C12.8 94.144 24.576 115.2 35.2 115.2ZM140.8 89.6C138.514 89.6 136.401 90.82 135.257 92.8C134.114 94.78 134.114 97.2201 135.257 99.2C136.401 101.18 138.514 102.4 140.8 102.4L211.2 102.4C213.486 102.4 215.599 101.18 216.743 99.2C217.886 97.22 217.886 94.7799 216.743 92.8C215.599 90.82 213.486 89.6 211.2 89.6L140.8 89.6ZM89.6 89.6C87.314 89.6 85.2009 90.82 84.0571 92.8C82.9141 94.78 82.9141 97.2201 84.0571 99.2C85.2011 101.18 87.3142 102.4 89.6 102.4L115.2 102.4C117.486 102.4 119.599 101.18 120.743 99.2C121.886 97.22 121.886 94.7799 120.743 92.8C119.599 90.82 117.486 89.6 115.2 89.6L89.6 89.6ZM96 57.6C93.714 57.6 91.6009 58.82 90.4571 60.8C89.3141 62.78 89.3141 65.2201 90.4571 67.2C91.6011 69.18 93.7142 70.4 96 70.4L224 70.4C226.286 70.4 228.399 69.18 229.543 67.2C230.686 65.22 230.686 62.7799 229.543 60.8C228.399 58.82 226.286 57.6 224 57.6L96 57.6ZM185.6 25.6C183.314 25.6 181.201 26.82 180.057 28.8C178.914 30.78 178.914 33.2201 180.057 35.2C181.201 37.18 183.314 38.4 185.6 38.4L211.2 38.4C213.486 38.4 215.599 37.18 216.743 35.2C217.886 33.22 217.886 30.7799 216.743 28.8C215.599 26.82 213.486 25.6 211.2 25.6L185.6 25.6ZM89.6 25.6C87.314 25.6 85.2009 26.82 84.0571 28.8C82.9141 30.78 82.9141 33.2201 84.0571 35.2C85.2011 37.18 87.3142 38.4 89.6 38.4L160 38.4C162.286 38.4 164.399 37.18 165.543 35.2C166.686 33.22 166.686 30.7799 165.543 28.8C164.399 26.82 162.286 25.6 160 25.6L89.6 25.6Z" fill="white"/>
</g>
<defs>
<clipPath id="clip0_1_10">
<rect width="128" height="128" fill="white"/>
</clipPath>
</defs>
</svg>
