<svg width="128" height="128" viewBox="0 0 128 128" fill="none" xmlns="http://www.w3.org/2000/svg">
<path d="M106.804 64.0802C106.804 67.8745 106.323 71.5578 105.422 75.0755C105.167 76.0728 104.868 77.0523 104.546 78.0218L110.043 78.0218C117.741 78.0218 124.003 71.7682 124.003 64.08C124.003 56.392 117.741 50.1381 110.043 50.1381L104.546 50.1381C104.868 51.1076 105.167 52.0871 105.422 53.0844C106.323 56.6021 106.804 60.286 106.804 64.0797L106.804 64.0802Z" fill="white"/>
<path d="M98.8513 38.7852C102.659 28.5678 104.503 13.1092 86.0526 5C86.0526 5 84.8229 14.6326 77.4845 22.3407C86.1967 25.4996 93.6402 31.3092 98.8509 38.784L98.8513 38.7852Z" fill="white"/>
<path d="M47.2693 22.3271C39.5507 17.9961 16.5535 7.70058 5.99692 31.6586C5.99692 31.6586 16.7017 32.7568 27.2772 36.8695C32.3919 30.3075 39.3005 25.2082 47.2693 22.3277L47.2693 22.3271Z" fill="white"/>
<path d="M27.2772 91.2903C16.7016 95.4034 5.99692 96.5011 5.99692 96.5011C16.5539 120.46 39.551 110.164 47.2693 105.833C39.3005 102.952 32.392 97.8522 27.2772 91.2909L27.2772 91.2903Z" fill="white"/>
<path d="M77.5943 105.782C84.8338 113.471 86.052 123.005 86.052 123.005C104.441 114.924 102.671 99.5396 98.8888 89.321C93.6981 96.791 86.2806 102.605 77.5937 105.782L77.5943 105.782Z" fill="white"/>
<path d="M62.3568 104.051C84.4251 104.051 102.379 86.1202 102.379 64.0802C102.379 42.0402 84.4251 24.1095 62.3568 24.1095C40.2886 24.1095 22.3358 42.0402 22.3358 64.0802C22.3358 86.1202 40.2886 104.051 62.3568 104.051Z" fill="white"/>
</svg>
