<svg width="128" height="128" viewBox="0 0 128 128" fill="none" xmlns="http://www.w3.org/2000/svg">
<path fill-rule="evenodd" clip-rule="evenodd" d="M17.5504 67C18.9596 67 20.1005 65.8612 20.1005 64.4575C20.1005 53.1378 24.5198 42.4986 32.5461 34.4963C40.5727 26.4934 51.2462 22.0863 62.5983 22.0863C73.9493 22.0863 84.6211 26.4937 92.6471 34.4963C93.6443 35.4892 95.2595 35.4892 96.2541 34.4963C97.2486 33.5034 97.2486 31.8942 96.2541 30.9013C87.264 21.9374 75.3115 17 62.5977 17C49.8829 17 37.9302 21.9366 28.9414 30.8991C19.9527 39.8617 15 51.7798 15 64.4571C15 65.8608 16.1434 66.9997 17.5501 66.9997L17.5504 67ZM89.0396 90.2506C88.5369 90.7479 87.8738 90.9989 87.2137 90.9989L87.214 91C86.5539 91 85.8912 90.7507 85.3873 90.2504C84.3768 89.2497 84.3768 87.6288 85.3873 86.6308C91.4773 80.6012 94.832 72.5798 94.832 64.0502C94.832 55.5201 91.4768 47.5001 85.3873 41.4697C79.2963 35.4375 71.196 32.1154 62.5841 32.1154C61.1561 32.1154 60 30.9705 60 29.5577C60 28.1449 61.1561 27 62.5841 27C72.5778 27 81.9715 30.8546 89.0396 37.8514C96.1076 44.8494 100 54.1544 100 64.051C100 73.9476 96.1076 83.2512 89.0396 90.2506ZM62.417 102C63.8452 102 65 100.839 65 99.4037C65 97.9662 63.8452 96.8047 62.417 96.8047C53.8018 96.8047 45.7036 93.4307 39.6122 87.3028C33.5204 81.1781 30.1668 73.0328 30.1668 64.3694C30.1668 55.7053 33.5204 47.561 39.6122 41.4361C40.6215 40.4211 40.6215 38.7749 39.6122 37.7612C38.6043 36.7463 36.9662 36.7463 35.9582 37.7612C28.891 44.8665 25 54.3179 25 64.3702C25 74.4226 28.8926 83.8708 35.9599 90.9792C43.0268 98.085 52.4218 102 62.4173 102L62.417 102ZM80.2537 46.4221C81.2488 47.4158 81.2488 49.0264 80.2537 50.0201L80.2519 50.0208C79.2594 51.0146 77.6477 51.0146 76.6544 50.0208C72.8314 46.1955 67.7473 44.09 62.3367 44.09C56.9278 44.09 51.8442 46.1955 48.019 50.0208C44.1938 53.8439 42.0884 58.9306 42.0884 64.3388C42.0884 69.7471 44.1938 74.8338 48.019 78.6591C49.0127 79.6515 49.0127 81.2608 48.019 82.2559C47.5227 82.7534 46.871 83 46.221 83C45.5694 83 44.9181 82.7534 44.4219 82.2559C39.6362 77.4729 37 71.1088 37 64.339C37 57.5691 39.6362 51.2074 44.4219 46.4221C49.207 41.635 55.5695 39 62.3383 39C69.1069 39 75.4706 41.6363 80.2537 46.4221ZM62.4747 54.0231C63.8709 54.0231 65 52.8978 65 51.5109C65 50.1239 63.8709 49 62.4747 49C58.3409 49 54.4549 50.6006 51.533 53.5058C48.6098 56.411 47 60.276 47 64.3849C47 68.4964 48.6111 72.3588 51.533 75.2654C52.0257 75.754 52.6724 76 53.3182 76C53.9636 76 54.6119 75.7536 55.1034 75.2654C56.0914 74.283 56.0914 72.6944 55.1034 71.712C53.1369 69.755 52.0524 67.1537 52.0524 64.3849C52.0524 61.6174 53.1364 59.0149 55.1047 57.0578C57.0726 55.1012 59.6913 54.0229 62.4748 54.0229L62.4747 54.0231ZM67.1335 64.4156C67.1335 67.0199 65.0222 69.1312 62.4179 69.1312C59.8136 69.1312 57.7023 67.0199 57.7023 64.4156C57.7023 61.8114 59.8136 59.7001 62.4179 59.7001C65.0222 59.7001 67.1335 61.8114 67.1335 64.4156ZM60 77.4904C60 76.1007 61.1303 74.9781 62.5264 74.9781C65.3097 74.9781 67.9257 73.8985 69.8964 71.9431C71.8645 69.986 72.9472 67.3847 72.9472 64.6158C72.9472 61.8469 71.8646 59.2456 69.8964 57.2885C68.9085 56.3074 68.9085 54.7174 69.8964 53.7363C70.8817 52.7552 72.482 52.7539 73.4673 53.7363C76.389 56.6416 78 60.5054 78 64.6145C78 68.7235 76.3903 72.5899 73.4673 75.4953C70.5443 78.4007 66.6599 80 62.5264 80C61.1303 80 60 78.8774 60 77.4904ZM62.5546 89.9998C69.351 89.9998 75.7398 87.3539 80.5464 82.5468C85.3525 77.7403 88 71.3534 88 64.5553C88 63.1446 86.858 62 85.4445 62C84.0335 62 82.8916 63.1446 82.8916 64.5553C82.8916 69.9873 80.7758 75.0953 76.9344 78.9352C73.0946 82.7738 67.9889 84.8893 62.5555 84.8893C61.1433 84.8893 60 86.0339 60 87.4447C60 88.8555 61.1446 90 62.5555 90L62.5546 89.9998ZM104.901 64.5426C104.901 63.1388 106.04 62 107.451 62L107.45 62.0001C108.857 62.0001 110 63.139 110 64.5427C110 77.2182 105.048 89.1366 96.058 98.0994C87.0673 107.062 75.1152 112 62.403 112C49.6908 112 37.7378 107.061 28.7469 98.0983C27.751 97.1067 27.751 95.4962 28.7469 94.5046C29.7427 93.5129 31.3578 93.5129 32.3523 94.5046C40.3792 102.508 51.0506 106.917 62.4022 106.917C73.7528 106.917 84.4245 102.508 92.4521 94.5046C100.481 86.5021 104.901 75.8615 104.901 64.5426Z" fill="white"/>
</svg>
