<svg width="128" height="128" viewBox="0 0 128 128" fill="none" xmlns="http://www.w3.org/2000/svg">
<path d="M95.4694 32.8379C93.8173 34.49 93.2273 34.9621 91.8115 34.9621C90.3957 34.9621 89.8057 34.49 88.1536 32.8379C86.5015 31.1858 83.3157 28 77.8876 28C72.4597 28 69.5097 30.95 67.5036 32.8379C65.4978 34.7258 65.2615 34.9621 63.8457 34.9621C62.4299 34.9621 61.8399 34.49 60.1878 32.8379C58.5357 31.1858 55.3499 28 49.8038 28C44.258 28 41.4259 30.95 39.4198 32.8379C37.414 34.7258 37.1777 34.9621 35.7619 34.9621C34.3461 34.9621 33.6377 34.49 32.104 32.8379C30.5698 31.1858 27.2661 28 21.72 28H17V37.44H21.72C23.2542 37.44 23.8442 37.9121 25.3779 39.5642C26.9121 41.2163 30.2158 44.4021 35.7619 44.4021C41.3077 44.4021 44.1398 41.4521 46.1459 39.5642C48.1517 37.6763 48.388 37.44 49.8038 37.44C51.2196 37.44 51.928 37.9121 53.4617 39.5642C54.9959 41.2163 58.2996 44.4021 63.8457 44.4021C69.3915 44.4021 72.2236 41.4521 74.2297 39.5642C76.2355 37.6763 76.4718 37.44 77.8876 37.44C79.3034 37.44 79.8934 37.9121 81.5455 39.5642C83.1976 41.2163 86.3834 44.4021 91.9295 44.4021C97.4753 44.4021 100.307 41.4521 102.196 39.5642C104.083 37.6763 104.438 37.44 105.853 37.44H110.573V28H105.853C100.425 27.9996 97.4751 30.9496 95.4694 32.8379Z" fill="white"/>
<path d="M95.4694 60.4499C93.8173 62.102 93.2273 62.5741 91.8115 62.5741C90.3957 62.5741 89.8057 62.102 88.1536 60.4499C86.5015 58.7978 83.3157 55.612 77.8876 55.612C72.4597 55.612 69.5097 58.562 67.5036 60.4499C65.4978 62.3378 65.2615 62.5741 63.8457 62.5741C62.4299 62.5741 61.8399 62.102 60.1878 60.4499C58.5357 58.7978 55.3499 55.612 49.8038 55.612C44.258 55.612 41.4259 58.562 39.4198 60.4499C37.414 62.3378 37.1777 62.5741 35.7619 62.5741C34.3461 62.5741 33.6377 62.102 32.104 60.4499C30.5698 58.7978 27.2661 55.612 21.72 55.612H17V65.052H21.72C23.2542 65.052 23.8442 65.5241 25.3779 67.1762C26.9121 68.8283 30.2158 72.0141 35.7619 72.0141C41.3077 72.0141 44.1398 69.0641 46.1459 67.1762C48.1517 65.2883 48.388 65.052 49.8038 65.052C51.2196 65.052 51.928 65.5241 53.4617 67.1762C54.9959 68.8283 58.2996 72.0141 63.8457 72.0141C69.3915 72.0141 72.2236 69.0641 74.2297 67.1762C76.2355 65.2883 76.4718 65.052 77.8876 65.052C79.3034 65.052 79.8934 65.5241 81.5455 67.1762C83.1976 68.8283 86.3834 72.0141 91.9295 72.0141C97.4753 72.0141 100.307 69.0641 102.196 67.1762C104.083 65.2883 104.438 65.052 105.853 65.052H110.573V55.612H105.853C100.425 55.612 97.4751 58.4441 95.4694 60.4499Z" fill="white"/>
<path d="M95.4694 87.9439C93.8173 89.596 93.2273 90.0681 91.8115 90.0681C90.3957 90.0681 89.8057 89.596 88.1536 87.9439C86.5015 86.2918 83.3157 83.106 77.8876 83.106C72.4597 83.106 69.5097 86.056 67.5036 87.9439C65.4978 89.8318 65.2615 90.0681 63.8457 90.0681C62.4299 90.0681 61.8399 89.596 60.1878 87.9439C58.5357 86.2918 55.3499 83.106 49.8038 83.106C44.258 83.106 41.4259 86.056 39.4198 87.9439C37.414 89.8318 37.1777 90.0681 35.7619 90.0681C34.3461 90.0681 33.6377 89.596 32.104 87.9439C30.5698 86.2918 27.2661 83.106 21.72 83.106H17V92.546H21.72C23.2542 92.546 23.8442 93.0181 25.3779 94.6702C26.9121 96.3223 30.2158 99.5081 35.7619 99.5081C41.3077 99.5081 44.1398 96.5581 46.1459 94.6702C48.1517 92.7823 48.388 92.546 49.8038 92.546C51.2196 92.546 51.928 93.0181 53.4617 94.6702C54.9959 96.3223 58.2996 99.5081 63.8457 99.5081C69.3915 99.5081 72.2236 96.5581 74.2297 94.6702C76.2355 92.7823 76.4718 92.546 77.8876 92.546C79.3034 92.546 79.8934 93.0181 81.5455 94.6702C83.1976 96.3223 86.3834 99.5081 91.9295 99.5081C97.4753 99.5081 100.307 96.5581 102.196 94.6702C104.083 92.7823 104.438 92.546 105.853 92.546H110.573V83.106H105.853C100.425 83.106 97.4751 86.056 95.4694 87.9439Z" fill="white"/>
</svg>
