<svg width="128" height="128" viewBox="0 0 128 128" fill="none" xmlns="http://www.w3.org/2000/svg">
<path fill-rule="evenodd" clip-rule="evenodd" d="M67.6128 66.6197C69.588 63.3773 70.8791 58.0062 70.8791 51.9282C70.8791 42.0268 63.224 34 63.224 34C63.224 34 55.5689 42.0266 55.5689 51.9282C55.5689 58.2485 56.9656 63.8045 59.0755 66.9967V69.3365C57.1723 66.6793 54.3235 63.8855 50.8152 61.4202C42.7346 55.7412 31.7929 57.4313 31.7929 57.4313C31.7929 57.4313 33.9527 68.3288 42.0337 74.0079C48.5892 78.6149 55.4316 80.6599 59.0753 79.4125V87.241C56.6702 85.0564 53.3269 82.9369 49.4153 81.2705C40.3444 77.406 30.0003 81.3454 30.0003 81.3454C30.0003 81.3454 34.3623 91.5512 43.4335 95.4154C49.4692 97.9869 55.3368 98.8326 59.075 97.9597V106.949C56.6699 104.764 53.3265 102.645 49.415 100.978C40.344 97.1141 30 101.053 30 101.053C30 101.053 34.362 111.259 43.4332 115.123C50.4351 118.106 57.2112 118.767 60.699 117.116H66.2994C69.7864 118.767 76.5628 118.106 83.5652 115.123C92.6365 111.259 96.9995 101.053 96.9995 101.053C96.9995 101.053 86.6547 97.1141 77.5834 100.978C73.5007 102.718 70.0372 104.95 67.6134 107.236V97.8822C71.3316 98.8787 77.3602 98.0593 83.5657 95.4155C92.637 91.5511 97 81.3455 97 81.3455C97 81.3455 86.6552 77.4062 77.5839 81.2706C73.5011 83.0098 70.0377 85.2426 67.6139 87.5281V79.3627C71.221 80.7127 78.1552 78.6745 84.7944 74.0081C92.8755 68.3291 95.0356 57.4315 95.0356 57.4315C95.0356 57.4315 84.0936 55.7414 76.0134 61.4205C72.4188 63.9469 69.5157 66.8179 67.6139 69.5332L67.6128 66.6197Z" fill="white"/>
</svg>
