<svg width="128" height="128" viewBox="0 0 128 128" fill="none" xmlns="http://www.w3.org/2000/svg">
<path fill-rule="evenodd" clip-rule="evenodd" d="M68.6127 86.4715C70.5879 83.2439 71.8791 77.8972 71.8791 71.8468C71.8791 61.9903 64.2239 54 64.2239 54C64.2239 54 56.5687 61.9901 56.5687 71.8468C56.5687 78.1384 57.9654 83.6692 60.0753 86.8468V89.1761C58.1722 86.5309 55.3233 83.7498 51.815 81.2957C43.7343 75.6424 32.7926 77.3249 32.7926 77.3249C32.7926 77.3249 34.9523 88.1729 43.0335 93.8262C49.589 98.4123 56.4315 100.448 60.0752 99.2063V106.999C57.6701 104.824 54.3267 102.715 50.4151 101.056C41.3441 97.2089 31 101.13 31 101.13C31 101.13 35.362 111.29 44.4333 115.136C51.4353 118.106 58.2114 118.763 61.6992 117.121H67.2996C70.7866 118.763 77.5631 118.106 84.5656 115.136C93.637 111.29 98 101.13 98 101.13C98 101.13 87.6551 97.2089 78.5838 101.056C74.501 102.787 71.0375 105.01 68.6137 107.285V99.1566C72.2208 100.5 79.1551 98.4715 85.7943 93.8263C93.8754 88.1731 96.0356 77.325 96.0356 77.325C96.0356 77.325 85.0936 75.6426 77.0132 81.2958C73.4186 83.8108 70.5155 86.6687 68.6137 89.3717L68.6127 86.4715Z" fill="white"/>
</svg>
