<svg width="256" height="128" viewBox="0 0 256 128" fill="none" xmlns="http://www.w3.org/2000/svg">
<path d="M238.786 20.6633C238.786 20.6633 237.601 10 224.568 10H25.2185C25.2185 10 11 10.889 11 22.7375V73.0931C11 73.0931 11.889 87.9036 26.9956 87.9036H34.4008V87.3116C34.4008 77.5361 42.398 69.835 51.8774 69.835C61.6528 69.835 69.354 77.8321 69.354 87.3116V87.9036H181.617V87.3116C181.617 77.5361 189.615 69.835 199.094 69.835C208.572 69.835 216.571 77.8321 216.571 87.3116V87.9036H233.75C233.75 87.9036 245.007 88.7926 245.007 75.4633V63.023L238.786 20.6633ZM48.3234 43.175C48.3234 44.656 46.8423 46.1371 45.3613 46.1371H26.4036C24.9226 46.1371 23.4415 44.656 23.4415 43.175V24.2173C23.4415 22.7363 24.9226 21.2552 26.4036 21.2552L45.3613 21.2562C46.8423 21.2562 48.3234 22.7372 48.3234 24.2183V43.175ZM79.4254 43.175C79.4254 44.656 77.9443 46.1371 76.4633 46.1371H57.5056C56.0246 46.1371 54.5435 44.656 54.5435 43.175V24.2173C54.5435 22.7363 56.0246 21.2552 57.5056 21.2552H76.4633C77.9443 21.2552 79.4254 22.7363 79.4254 24.2173V43.175ZM114.674 77.5353C114.674 79.0163 113.193 80.4974 111.712 80.4974H90.9775C89.4965 80.4974 88.0154 79.0163 88.0154 77.5353V24.2176C88.0154 22.7365 89.4965 21.2555 90.9775 21.2555H111.712C113.193 21.2555 114.674 22.7365 114.674 24.2176V77.5353ZM146.665 77.5353C146.665 79.0163 145.184 80.4974 143.703 80.4974H122.968C121.487 80.4974 120.006 79.0163 120.006 77.5353V24.2176C120.006 22.7365 121.487 21.2555 122.968 21.2555H143.703C145.184 21.2555 146.665 22.7365 146.665 24.2176V77.5353ZM176.582 43.175C176.582 44.656 175.101 46.1371 173.62 46.1371H154.662C153.181 46.1371 151.7 44.656 151.7 43.175V24.2173C151.7 22.7363 153.181 21.2552 154.662 21.2552H173.62C175.101 21.2552 176.582 22.7363 176.582 24.2173V43.175ZM183.098 46.1371V27.1794C183.098 27.1794 183.098 20.9593 187.837 20.9593H222.79C222.79 20.9593 230.491 22.4403 231.676 29.5496L234.046 46.1371H183.098ZM238.489 74.5732H231.38C229.899 74.5732 228.714 73.3881 228.714 71.907C228.714 70.4259 229.899 69.2409 231.38 69.2409H238.489C239.97 69.2409 241.155 70.4259 241.155 71.907C241.155 73.3881 239.97 74.5732 238.489 74.5732Z" fill="white"/>
<path d="M51.8779 72.5C43.8808 72.5 37.3634 79.0161 37.3634 87.0145V87.6065C37.6594 95.3077 44.1767 101.528 51.8779 101.528C59.5791 101.528 66.0965 95.3077 66.3924 87.6065V87.0145C66.6884 79.0173 60.1723 72.5 51.8779 72.5Z" fill="white"/>
<path d="M199.39 72.5C191.393 72.5 184.876 79.0161 184.876 87.0145V87.6065C185.172 95.3077 191.689 101.528 199.39 101.528C207.091 101.528 213.609 95.3077 213.905 87.6065V87.0145C213.905 79.0173 207.388 72.5 199.39 72.5Z" fill="white"/>
</svg>
