<svg width="384" height="128" viewBox="0 0 384 128" fill="none" xmlns="http://www.w3.org/2000/svg">
<path d="M245.222 103.909C245.558 102.413 246.894 101.347 248.439 101.341C261.17 89.9439 278.043 65.0181 243.687 56.4881C243.214 57.4398 242.305 58.1053 241.249 58.2752C240.193 58.445 239.119 58.0992 238.367 57.3434L233.412 52.4121C232.79 51.794 231.945 51.4467 231.065 51.4467C230.185 51.4467 229.342 51.794 228.72 52.4121L222.526 58.5733C221.905 59.193 221.06 59.5403 220.181 59.5403C219.301 59.5403 218.456 59.1929 217.835 58.5733L211.627 52.4121C210.335 51.133 208.243 51.133 206.951 52.4121L200.741 58.5733C200.12 59.1914 199.277 59.5387 198.396 59.5387C197.516 59.5387 196.673 59.1914 196.051 58.5733H196.05L189.856 52.4121C189.234 51.7894 188.388 51.439 187.505 51.439C186.623 51.439 185.776 51.7894 185.154 52.4121L178.956 58.5733C177.664 59.8524 175.572 59.8524 174.28 58.5733H174.282L168.072 52.4121C167.451 51.794 166.608 51.4467 165.727 51.4467C164.849 51.4467 164.005 51.794 163.384 52.4121L157.187 58.5733C155.893 59.8539 153.8 59.8539 152.508 58.5733L146.287 52.4121C144.995 51.133 142.903 51.133 141.611 52.4121C141.611 52.4121 134.329 58.8497 128.858 61.6891C118.495 67.0675 112.25 66.7655 99.4745 67.4C86.6991 68.0345 55.0206 71.1727 45.1188 66.6843C32.8491 61.1226 18.7429 45.8278 28.9633 28.6951C39.1837 11.5625 9.37207 36.8348 7.2688 55.0489C4.5723 78.4003 22.7797 90.049 34.2693 94.0655C45.7588 98.0819 86.842 100.814 133.544 101.341H154.464C156.02 101.334 157.369 102.402 157.708 103.909C158.502 107.357 160.833 110.257 164.043 111.792C167.254 113.327 170.992 113.327 174.202 111.792C177.414 110.257 179.745 107.357 180.537 103.909C180.875 102.413 182.21 101.347 183.756 101.341H219.148C220.694 101.347 222.029 102.413 222.367 103.909C223.145 107.373 225.476 110.296 228.697 111.841C231.916 113.386 235.671 113.386 238.892 111.841C242.111 110.296 244.443 107.373 245.222 103.909Z" fill="white"/>
<path d="M362.592 73.5496C363.822 73.5496 364.877 72.5076 364.877 71.2922V65.1282C371.729 64.0862 377 58.1828 377 51.1507C377 50.8904 376.824 50.7166 376.561 50.7166L299.604 50.717C299.341 43.1638 293.015 37 285.285 37C277.378 37 271.053 43.251 270.965 50.9775C266.836 51.6718 263.059 53.582 259.984 56.6205C255.943 60.6142 253.834 65.9101 254.01 71.553C254.186 76.3279 256.118 83.6205 264.552 90.9131C264.64 91 264.728 91 264.816 91H361.451C365.141 91 368.215 88.0483 368.215 84.3149C368.215 80.6684 365.228 77.6298 361.451 77.6298H356.092V71.6396C356.092 70.4242 355.037 69.3822 353.807 69.3822C352.578 69.3822 351.523 70.4242 351.523 71.6396V77.6298H338.697V71.6396C338.697 70.4242 337.643 69.3822 336.413 69.3822C335.183 69.3822 334.129 70.4242 334.129 71.6396V77.6298H321.39V71.6396C321.39 70.4242 320.336 69.3822 319.106 69.3822C317.876 69.3822 316.822 70.4242 316.822 71.6396V77.6298H311.024C309.355 77.6298 307.773 77.0219 306.543 75.8066C305.226 74.5043 304.61 72.768 304.698 70.9447C304.786 69.2953 305.577 67.9061 306.719 66.8641C307.861 65.8222 309.442 65.2147 311.199 65.2147H325.431V71.205C325.431 72.4203 326.485 73.4623 327.715 73.4623C328.945 73.4623 329.999 72.4203 329.999 71.205V65.2147H342.825V71.205C342.825 72.4203 343.88 73.4623 345.11 73.4623C346.339 73.4623 347.394 72.4203 347.394 71.205V65.2147H360.22V71.205C360.308 72.5072 361.274 73.5492 362.592 73.5492L362.592 73.5496ZM285.021 53.8422C282.913 53.8422 281.244 52.1928 281.244 50.1093C281.244 48.1128 282.913 46.3764 285.021 46.3764C287.129 46.3764 288.798 48.0258 288.798 50.1093C288.799 52.1928 287.129 53.8422 285.021 53.8422Z" fill="white"/>
</svg>
