<svg width="128" height="128" viewBox="0 0 128 128" fill="none" xmlns="http://www.w3.org/2000/svg">
<path d="M104.626 54.0887L111.286 47.4285H117.857C120.145 47.4285 122 45.5737 122 43.2856C122 40.9975 120.145 39.1427 117.857 39.1427H109.571C108.474 39.1427 107.419 39.5792 106.642 40.3565L98.2059 48.7928C95.6621 46.9534 93.0205 45.3445 90.3508 43.9762L100.139 33.7171C100.876 32.9466 101.286 31.9235 101.286 30.8571V20.1434L108.358 13.0715C109.976 11.4532 109.976 8.83193 108.358 7.21369C106.739 5.59544 104.118 5.59544 102.5 7.21369L94.2141 15.4994C93.4364 16.2758 92.9999 17.3308 92.9999 18.4285V29.1988L82.3654 40.3417C81.567 38.4816 80.5672 36.75 79.3769 35.1519C82.6925 32.9645 84.7142 30.0466 84.7142 26.7143C84.7142 21.559 79.9694 17.3569 72.8552 15.4334L75.2152 13.0733C76.8335 11.4551 76.8335 8.83378 75.2152 7.21553C73.597 5.59728 70.9757 5.59728 69.3575 7.21553L64.0004 12.5708L58.6438 7.21415C57.0255 5.5959 54.4042 5.5959 52.786 7.21415C51.1677 8.83239 51.1677 11.4537 52.786 13.0719L55.146 15.432C48.0309 17.3569 43.2859 21.559 43.2859 26.7143C43.2859 30.0466 45.3074 32.9645 48.6232 35.1519C47.4328 36.7495 46.4331 38.4816 45.6347 40.3417L35.0002 29.1988V18.4285C35.0002 17.3308 34.5637 16.2757 33.7864 15.4994L25.5007 7.21369C23.8824 5.59544 21.2612 5.59544 19.6429 7.21369C18.0247 8.83193 18.0247 11.4532 19.6429 13.0715L26.7144 20.1434V30.8571C26.7144 31.9234 27.1244 32.9465 27.8594 33.7171L37.6475 43.9762C34.9795 45.3446 32.3376 46.9534 29.7924 48.7928L21.356 40.3565C20.5815 39.5792 19.5265 39.1427 18.4286 39.1427H10.1429C7.85474 39.1427 6 40.9975 6 43.2856C6 45.5737 7.85474 47.4285 10.1429 47.4285H16.7137L23.3739 54.0887C14.3231 62.601 4.51927 77.3302 6.24431 89.6206C8.15567 103.221 24.7365 111.619 43.8432 99.7804C46.3965 118.99 57.3857 122 63.9994 122C70.613 122 81.6008 118.99 84.1544 99.7839C103.154 111.557 119.833 103.32 121.752 89.6201C123.482 77.3123 113.649 62.5764 104.626 54.0893L104.626 54.0887ZM14.4496 88.4687C13.0606 78.5714 24.8329 58.8829 43.2932 50.4269C43.0307 59.7016 47.1654 67.9189 56.0739 70.987C54.747 74.562 53.1075 78.5808 51.2172 81.3953C37.998 101.039 16.195 100.899 14.4493 88.4696L14.4496 88.4687ZM113.548 88.4687C111.799 100.925 89.9672 101.001 76.7814 81.394C74.8906 78.5795 73.2517 74.5611 71.9247 70.9856C80.6042 67.9971 84.9782 60.036 84.7054 50.4255C103.278 58.9338 114.925 78.6568 113.548 88.4685L113.548 88.4687Z" fill="white"/>
</svg>
