<svg width="128" height="128" viewBox="0 0 128 128" fill="none" xmlns="http://www.w3.org/2000/svg">
<path fill-rule="evenodd" clip-rule="evenodd" d="M122 64C122 96.0325 96.0325 122 64 122C55.5017 122 47.4302 120.172 40.1574 116.888C33.8279 112.668 29.3086 107.407 28.0001 102.5C24.3706 103.33 19.2337 99.8984 15.7234 96.1572C9.58086 86.9539 6 75.8951 6 64C6 31.9675 31.9675 6 64 6C74.7873 6 84.8868 8.94493 93.5384 14.0747C91.6987 19.2338 88.8585 27.0219 86.3209 33.2391C81.5975 44.8119 69.5488 60.5 69.5488 60.5C69.5488 60.5 84.2558 47.6904 95.3209 42.2391C102.71 38.5986 109.412 36.119 114.012 34.6085C119.088 43.2274 122 53.2737 122 64Z" fill="white"/>
</svg>
