<svg width="256" height="128" viewBox="0 0 256 128" fill="none" xmlns="http://www.w3.org/2000/svg">
<path d="M240.01 61.3046C239.772 57.429 236.917 54.5216 233.112 54.2795L202.905 51.6151L180.784 28.8448C177.692 25.6953 173.649 24 169.367 24H66.8523C61.6199 24 56.6242 26.6644 53.7704 31.0251L39.4992 51.3731L22.1356 52.5843C18.0925 52.8264 15 56.2178 15 60.0934V78.2613C15 82.3789 18.3301 86.0125 22.6109 86.0125H37.3574C38.0712 94.9749 45.4446 102 54.4824 102C63.5212 102 70.8944 94.9749 71.6074 86.0125H184.587C185.301 94.9749 192.675 102 201.712 102C210.751 102 218.125 94.9749 218.838 86.0125H233.584C237.866 86.0125 241.434 82.3789 240.957 77.7762L240.01 61.3046ZM54.4846 92.5533C49.9652 92.5533 46.3974 88.9198 46.3974 84.075C46.3974 79.2302 49.9652 75.8387 54.4846 75.8387C59.004 75.8387 62.5718 79.4723 62.5718 84.075C62.5718 88.6769 59.004 92.5533 54.4846 92.5533ZM79.697 50.4039H54.7224L63.5226 37.808C64.2365 36.5968 65.6634 36.1126 66.8527 36.1126H79.697V50.4039ZM113.234 50.4039H91.8275V35.8697H113.234V50.4039ZM146.771 50.4039H125.365V35.8697H146.771V50.4039ZM158.664 35.8697H169.13C170.319 35.8697 171.271 36.3538 171.984 37.0808L184.828 50.4039H158.664V35.8697ZM201.478 92.5533C196.958 92.5533 193.153 88.9198 193.153 84.075C193.153 79.2302 196.721 75.8387 201.478 75.8387C206.235 75.8387 209.565 79.4723 209.565 84.075C209.565 88.6769 205.997 92.5533 201.478 92.5533Z" fill="white"/>
</svg>
