<svg width="128" height="128" viewBox="0 0 128 128" fill="none" xmlns="http://www.w3.org/2000/svg">
<g clip-path="url(#clip0_1_13)">
<path d="M-92.8 102.4C-108.032 102.4 -108.8 70.4128 -108.8 64C-108.8 57.5872 -108.032 25.6 -92.8 25.6C-77.568 25.6 -76.8 57.5872 -76.8 64C-76.8 70.4128 -77.568 102.4 -92.8 102.4ZM36.16 4.53733e-07L92.8 -2.02208e-06C112.896 -2.9005e-06 128 27.52 128 64C128 100.48 112.896 128 92.8 128L-92.8 128C-112.512 128 -128 99.904 -128 64C-128 28.096 -112.512 6.95239e-06 -92.8 6.09075e-06L36.16 4.53733e-07ZM-92.8 115.2C-82.176 115.2 -70.4 94.144 -70.4 64C-70.4 33.856 -82.176 12.8 -92.8 12.8C-103.424 12.8 -115.2 33.856 -115.2 64C-115.2 94.144 -103.424 115.2 -92.8 115.2ZM12.8 89.6C10.514 89.6 -4 89.6 -4 89.6C-5.14299 91.58 -5.14299 100.42 -4 102.4C-4 102.4 10.5142 102.4 12.8 102.4L83.2 102.4C85.486 102.4 87.5991 101.18 88.7429 99.2C89.8859 97.22 89.8859 94.7799 88.7429 92.8C87.5989 90.82 85.4858 89.6 83.2 89.6L12.8 89.6ZM-38.4 89.6C-40.686 89.6 -42.7991 90.82 -43.9429 92.8C-45.0859 94.78 -45.0859 97.2201 -43.9429 99.2C-42.7989 101.18 -40.6858 102.4 -38.4 102.4L-12.8 102.4C-10.514 102.4 -8.4009 101.18 -7.25709 99.2C-6.1141 97.22 -6.1141 94.7799 -7.25709 92.8C-8.4011 90.82 -10.5142 89.6 -12.8 89.6L-38.4 89.6ZM-32 57.6C-34.286 57.6 -36.3991 58.82 -37.5429 60.8C-38.6859 62.78 -38.6859 65.2201 -37.5429 67.2C-36.3989 69.18 -34.2858 70.4 -32 70.4L96 70.4C98.286 70.4 100.399 69.18 101.543 67.2C102.686 65.22 102.686 62.7799 101.543 60.8C100.399 58.82 98.2858 57.6 96 57.6L-32 57.6ZM57.6 25.6C55.314 25.6 53.2009 26.82 52.0571 28.8C50.9141 30.78 50.9141 33.2201 52.0571 35.2C53.2011 37.18 55.3142 38.4 57.6 38.4L83.2 38.4C85.486 38.4 87.5991 37.18 88.7429 35.2C89.8859 33.22 89.8859 30.7799 88.7429 28.8C87.5989 26.82 85.4858 25.6 83.2 25.6L57.6 25.6ZM-38.4 25.6C-40.686 25.6 -42.7991 26.82 -43.9429 28.8C-45.0859 30.78 -45.0859 33.2201 -43.9429 35.2C-42.7989 37.18 -40.6858 38.4 -38.4 38.4L32 38.4C34.286 38.4 36.3991 37.18 37.5429 35.2C38.6859 33.22 38.6859 30.7799 37.5429 28.8C36.3989 26.82 34.2858 25.6 32 25.6L-38.4 25.6Z" fill="white"/>
</g>
<defs>
<clipPath id="clip0_1_13">
<rect width="128" height="128" fill="white"/>
</clipPath>
</defs>
</svg>
