<svg width="128" height="128" viewBox="0 0 128 128" fill="none" xmlns="http://www.w3.org/2000/svg">
<g clip-path="url(#clip0_1_12)">
<mask id="mask0_1_12" style="mask-type:alpha" maskUnits="userSpaceOnUse" x="-7" y="0" width="103" height="128">
<path d="M-7 0H96V128H-7V0Z" fill="#D9D9D9"/>
</mask>
<g mask="url(#mask0_1_12)">
<path d="M-101.8 102.4C-117.032 102.4 -117.8 70.4128 -117.8 64C-117.8 57.5872 -117.032 25.6 -101.8 25.6C-86.568 25.6 -85.8 57.5872 -85.8 64C-85.8 70.4128 -86.568 102.4 -101.8 102.4ZM27.16 4.53733e-07L83.8 -2.02208e-06C103.896 -2.9005e-06 119 27.52 119 64C119 100.48 103.896 128 83.8 128L-101.8 128C-121.512 128 -137 99.904 -137 64C-137 28.096 -121.512 6.95239e-06 -101.8 6.09075e-06L27.16 4.53733e-07ZM-101.8 115.2C-91.176 115.2 -79.4 94.144 -79.4 64C-79.4 33.856 -91.176 12.8 -101.8 12.8C-112.424 12.8 -124.2 33.856 -124.2 64C-124.2 94.144 -112.424 115.2 -101.8 115.2ZM14.8 89.6C12.514 89.6 10.4009 90.82 9.25709 92.8C8.11411 94.78 8.11411 97.2201 9.25709 99.2C10.4011 101.18 12.5142 102.4 14.8 102.4L85.2 102.4C87.486 102.4 89.5991 101.18 90.7429 99.2C91.8859 97.22 91.8859 94.7799 90.7429 92.8C89.5989 90.82 87.4858 89.6 85.2 89.6L14.8 89.6ZM-47.4 89.6C-49.686 89.6 -51.7991 90.82 -52.9429 92.8C-54.0859 94.78 -54.0859 97.2201 -52.9429 99.2C-51.7989 101.18 -49.6858 102.4 -47.4 102.4L-21.8 102.4C-19.514 102.4 -17.4009 101.18 -16.2571 99.2C-15.1141 97.22 -15.1141 94.7799 -16.2571 92.8C-17.4011 90.82 -19.5142 89.6 -21.8 89.6L-47.4 89.6ZM-41 57.6C-43.286 57.6 -45.3991 58.82 -46.5429 60.8C-47.6859 62.78 -47.6859 65.2201 -46.5429 67.2C-45.3989 69.18 -43.2858 70.4 -41 70.4L87 70.4C89.286 70.4 91.3991 69.18 92.5429 67.2C93.6859 65.22 93.6859 62.7799 92.5429 60.8C91.3989 58.82 89.2858 57.6 87 57.6L-41 57.6ZM48.6 25.6C46.314 25.6 44.2009 26.82 43.0571 28.8C41.9141 30.78 41.9141 33.2201 43.0571 35.2C44.2011 37.18 46.3142 38.4 48.6 38.4L74.2 38.4C76.486 38.4 78.5991 37.18 79.7429 35.2C80.8859 33.22 80.8859 30.7799 79.7429 28.8C78.5989 26.82 76.4858 25.6 74.2 25.6L48.6 25.6ZM-47.4 25.6C-49.686 25.6 -51.7991 26.82 -52.9429 28.8C-54.0859 30.78 -54.0859 33.2201 -52.9429 35.2C-51.7989 37.18 -49.6858 38.4 -47.4 38.4L23 38.4C25.286 38.4 27.3991 37.18 28.5429 35.2C29.6859 33.22 29.6859 30.7799 28.5429 28.8C27.3989 26.82 25.2858 25.6 23 25.6L-47.4 25.6Z" fill="white"/>
</g>
<mask id="mask1_1_12" style="mask-type:alpha" maskUnits="userSpaceOnUse" x="82" y="0" width="149" height="128">
<path d="M82 0H231V128H82L95 100V64.5L82 0Z" fill="#D9D9D9"/>
</mask>
<g mask="url(#mask1_1_12)">
<path d="M58.2 102.4C42.968 102.4 42.2 70.4128 42.2 64C42.2 57.5872 42.968 25.6 58.2 25.6C73.432 25.6 74.2 57.5872 74.2 64C74.2 70.4128 73.432 102.4 58.2 102.4ZM187.16 4.53733e-07L243.8 -2.02208e-06C263.896 -2.9005e-06 279 27.52 279 64C279 100.48 263.896 128 243.8 128L58.2 128C38.488 128 23 99.904 23 64C23 28.096 38.488 6.95239e-06 58.2 6.09075e-06L187.16 4.53733e-07ZM58.2 115.2C68.824 115.2 80.6 94.144 80.6 64C80.6 33.856 68.824 12.8 58.2 12.8C47.576 12.8 35.8 33.856 35.8 64C35.8 94.144 47.576 115.2 58.2 115.2ZM163.8 89.6C161.514 89.6 159.401 90.82 158.257 92.8C157.114 94.78 157.114 97.2201 158.257 99.2C159.401 101.18 161.514 102.4 163.8 102.4L234.2 102.4C236.486 102.4 238.599 101.18 239.743 99.2C240.886 97.22 240.886 94.7799 239.743 92.8C238.599 90.82 236.486 89.6 234.2 89.6L163.8 89.6ZM112.6 89.6C110.314 89.6 108.201 90.82 107.057 92.8C105.914 94.78 105.914 97.2201 107.057 99.2C108.201 101.18 110.314 102.4 112.6 102.4L138.2 102.4C140.486 102.4 142.599 101.18 143.743 99.2C144.886 97.22 144.886 94.7799 143.743 92.8C142.599 90.82 140.486 89.6 138.2 89.6L112.6 89.6ZM119 57.6C116.714 57.6 114.601 58.82 113.457 60.8C112.314 62.78 112.314 65.2201 113.457 67.2C114.601 69.18 116.714 70.4 119 70.4L247 70.4C249.286 70.4 251.399 69.18 252.543 67.2C253.686 65.22 253.686 62.7799 252.543 60.8C251.399 58.82 249.286 57.6 247 57.6L119 57.6ZM208.6 25.6C206.314 25.6 204.201 26.82 203.057 28.8C201.914 30.78 201.914 33.2201 203.057 35.2C204.201 37.18 206.314 38.4 208.6 38.4L234.2 38.4C236.486 38.4 238.599 37.18 239.743 35.2C240.886 33.22 240.886 30.7799 239.743 28.8C238.599 26.82 236.486 25.6 234.2 25.6L208.6 25.6ZM112.6 25.6C110.314 25.6 108.201 26.82 107.057 28.8C105.914 30.78 105.914 33.2201 107.057 35.2C108.201 37.18 110.314 38.4 112.6 38.4L183 38.4C185.286 38.4 187.399 37.18 188.543 35.2C189.686 33.22 189.686 30.7799 188.543 28.8C187.399 26.82 185.286 25.6 183 25.6L112.6 25.6Z" fill="white"/>
</g>
</g>
<defs>
<clipPath id="clip0_1_12">
<rect width="128" height="128" fill="white"/>
</clipPath>
</defs>
</svg>
