<svg width="128" height="128" viewBox="0 0 128 128" fill="none" xmlns="http://www.w3.org/2000/svg">
<g clip-path="url(#clip0_2_38)">
<path d="M122.081 94.8887H120.171C120.716 93.5244 120.716 92.1602 120.716 90.5234C120.716 81.2463 113.077 73.6068 103.8 73.6068C94.5233 73.6068 87.1562 81.2464 87.1562 90.5234C87.1562 92.1602 87.4288 93.7976 87.9746 95.1619L48.4118 95.4345C48.6849 93.7977 48.9576 92.1602 48.9576 90.5234C48.9576 81.2464 41.318 73.6069 32.0411 73.6069C22.7641 73.6069 15.1246 81.2465 15.1246 90.5234C15.1246 92.4334 15.3973 94.0703 15.9431 95.7077C10.7588 95.1619 6.39343 91.3424 5.575 86.4307C5.30234 84.5206 4.75654 82.8838 4.48342 80.9738C3.66497 77.6995 5.30188 75.7894 6.39347 74.4252C7.21192 73.3336 8.03032 72.2425 9.12193 70.3325C9.94038 68.6956 11.032 67.604 12.6688 66.7856C11.5773 65.4214 9.94037 63.5113 8.03033 61.0561L4.75607 62.4203C3.39184 62.9661 1.75497 62.4203 1.20917 61.0561C0.66336 59.6918 1.20916 58.055 2.57339 57.5092C6.12074 55.5991 7.48497 55.0533 8.03078 55.0533L20.036 52.0522C21.4003 51.7796 23.0371 52.598 23.3103 53.9623C23.583 55.3265 22.7645 56.9633 21.4003 57.2365L13.4875 59.4192C15.6702 62.1477 17.8528 64.6035 18.6718 65.9677C21.6729 65.6951 21.6729 65.6951 22.2187 65.422C58.7802 46.8684 82.5178 65.1493 92.886 65.1493C98.343 65.1493 100.799 64.8766 102.436 64.6035C107.347 64.0577 105.983 64.6035 121.535 71.6973C123.718 72.7889 125.082 75.2442 124.809 77.9727C124.537 80.1553 125.082 82.0654 126.173 84.248C126.991 85.0665 127.81 86.4307 128.083 87.7949C128.629 91.3418 125.901 94.8887 122.081 94.8887ZM51.959 62.1471C52.2316 64.3297 52.5047 67.0582 52.5047 69.514C52.5047 70.0598 52.7774 70.3325 53.3232 70.3325H58.2343V67.8766C58.2343 66.5124 59.5986 65.1482 60.9628 65.1482C62.327 65.1482 63.6913 66.5124 63.6913 67.8766V70.3325H83.6091C83.8817 70.3325 84.1549 70.3325 84.4275 70.0598L86.0644 68.9682C72.422 64.8755 64.7828 61.3286 51.959 62.1471Z" fill="white"/>
<path d="M115.532 90.523C115.532 96.7984 110.348 101.983 104.073 101.983C97.7976 101.983 92.6133 96.7983 92.6133 90.523C92.6133 84.2478 97.7976 79.0635 104.073 79.0635C110.348 79.0635 115.532 84.2478 115.532 90.523Z" fill="white"/>
<path d="M43.5009 90.523C43.5009 96.7984 38.3165 101.983 32.0413 101.983C25.766 101.983 20.5817 96.7983 20.5817 90.523C20.5817 84.2478 25.766 79.0635 32.0413 79.0635C38.3165 79.0635 43.5009 84.2478 43.5009 90.523Z" fill="white"/>
</g>
<defs>
<clipPath id="clip0_2_38">
<rect width="128" height="128" fill="white"/>
</clipPath>
</defs>
</svg>
