<svg width="384" height="128" viewBox="0 0 384 128" fill="none" xmlns="http://www.w3.org/2000/svg">
<path d="M62.9066 71.8002C70.7632 71.8002 77.8336 84.369 77.8336 91.3415H72.6514C71.7342 75.331 53.9573 73.5197 48.4806 80.6473L48.4998 81.298H43.3176L43.3349 80.6473C37.8595 73.5199 20.0808 75.3315 19.1656 91.3415H14.0001C14.0001 84.3717 21.0705 71.8002 28.9271 71.8002H62.9066Z" fill="white"/>
<path d="M47.4234 90.9155C47.4234 97.2611 52.5562 102.409 58.9018 102.424C65.2455 102.442 70.4048 97.3181 70.437 90.9744C70.4691 84.6307 65.361 79.4558 59.0173 79.4101C52.6736 79.3606 47.4877 84.4556 47.4227 90.8012" fill="white"/>
<path d="M22.0207 90.9155C22.0207 97.2611 27.156 102.409 33.4991 102.424C39.8447 102.442 45.006 97.3181 45.0369 90.9744C45.0672 84.6307 39.9592 79.4558 33.6153 79.4101C27.2697 79.3606 22.0837 84.4556 22.0188 90.8012" fill="white"/>
<path fill-rule="evenodd" clip-rule="evenodd" d="M317 68L316.93 15L14.0013 15.1828L14 67.9593L317 68ZM69.6258 40.355V34.76H78.9558V31.235H65.0958V53H78.9558V49.475H69.6258V43.76H76.8858V40.355H69.6258ZM86.8524 40.775V34.76H96.1824V31.235H82.3224V53H86.8524V44.315H94.6824V40.775H86.8524ZM103.845 40.775V34.76H113.175V31.235H99.3146V53H103.845V44.315H111.675V40.775H103.845ZM136.322 46.535C136.862 45.175 137.132 43.7 137.132 42.11C137.132 40.53 136.862 39.065 136.322 37.715C135.792 36.355 135.037 35.18 134.057 34.19C133.087 33.19 131.917 32.41 130.547 31.85C129.177 31.28 127.657 30.995 125.987 30.995C124.317 30.995 122.797 31.28 121.427 31.85C120.057 32.41 118.882 33.185 117.902 34.175C116.922 35.165 116.162 36.34 115.622 37.7C115.092 39.05 114.827 40.52 114.827 42.11C114.827 43.7 115.092 45.175 115.622 46.535C116.162 47.895 116.922 49.07 117.902 50.06C118.882 51.05 120.057 51.83 121.427 52.4C122.797 52.96 124.317 53.24 125.987 53.24C127.657 53.24 129.177 52.96 130.547 52.4C131.917 51.83 133.087 51.05 134.057 50.06C135.037 49.07 135.792 47.895 136.322 46.535ZM132.077 39.05C132.377 39.95 132.527 40.97 132.527 42.11C132.527 43.26 132.377 44.29 132.077 45.2C131.777 46.1 131.342 46.865 130.772 47.495C130.212 48.125 129.527 48.61 128.717 48.95C127.917 49.28 127.007 49.445 125.987 49.445C124.967 49.445 124.052 49.28 123.242 48.95C122.432 48.61 121.742 48.125 121.172 47.495C120.612 46.865 120.182 46.1 119.882 45.2C119.582 44.29 119.432 43.26 119.432 42.11C119.432 40.97 119.582 39.95 119.882 39.05C120.182 38.14 120.612 37.37 121.172 36.74C121.742 36.1 122.432 35.615 123.242 35.285C124.052 34.945 124.967 34.775 125.987 34.775C127.007 34.775 127.917 34.945 128.717 35.285C129.527 35.615 130.212 36.1 130.772 36.74C131.342 37.37 131.777 38.14 132.077 39.05ZM149.118 41.27C148.588 41.45 147.958 41.54 147.228 41.54H144.918V34.655H147.258C148.658 34.655 149.698 34.94 150.378 35.51C151.068 36.08 151.413 36.88 151.413 37.91C151.413 38.43 151.333 38.91 151.173 39.35C151.013 39.79 150.763 40.175 150.423 40.505C150.083 40.825 149.648 41.08 149.118 41.27ZM153.708 53H157.773L152.703 45.17C152.503 44.86 152.278 44.595 152.028 44.375C151.778 44.145 151.508 43.95 151.218 43.79C151.948 43.54 152.598 43.21 153.168 42.8C153.738 42.39 154.218 41.92 154.608 41.39C154.998 40.86 155.293 40.275 155.493 39.635C155.703 38.985 155.808 38.3 155.808 37.58C155.808 36.65 155.648 35.8 155.328 35.03C155.008 34.25 154.503 33.58 153.813 33.02C153.123 32.46 152.238 32.025 151.158 31.715C150.078 31.395 148.778 31.235 147.258 31.235H140.418V53H144.918V44.705H146.448C146.848 44.705 147.148 44.765 147.348 44.885C147.558 45.005 147.748 45.195 147.918 45.455L152.058 52.13C152.398 52.71 152.948 53 153.708 53ZM168.447 34.865H174.807V31.235H157.572V34.865H163.932V53H168.447V34.865ZM203.782 35.915C203.932 35.805 204.077 35.635 204.217 35.405L205.327 33.29C204.557 32.57 203.612 32.01 202.492 31.61C201.382 31.2 200.172 30.995 198.862 30.995C197.692 30.995 196.652 31.175 195.742 31.535C194.842 31.895 194.082 32.37 193.462 32.96C192.842 33.55 192.372 34.225 192.052 34.985C191.732 35.745 191.572 36.53 191.572 37.34C191.572 38.35 191.712 39.195 191.992 39.875C192.282 40.555 192.657 41.125 193.117 41.585C193.577 42.045 194.102 42.415 194.692 42.695C195.282 42.975 195.887 43.215 196.507 43.415C197.127 43.615 197.732 43.8 198.322 43.97C198.912 44.13 199.437 44.325 199.897 44.555C200.357 44.785 200.727 45.07 201.007 45.41C201.297 45.75 201.442 46.195 201.442 46.745C201.442 47.695 201.152 48.41 200.572 48.89C200.002 49.37 199.192 49.61 198.142 49.61C197.422 49.61 196.802 49.51 196.282 49.31C195.772 49.11 195.322 48.89 194.932 48.65C194.542 48.41 194.197 48.19 193.897 47.99C193.597 47.79 193.312 47.69 193.042 47.69C192.842 47.69 192.652 47.745 192.472 47.855C192.292 47.955 192.147 48.085 192.037 48.245L190.717 50.375C191.137 50.805 191.627 51.195 192.187 51.545C192.747 51.895 193.342 52.195 193.972 52.445C194.612 52.695 195.272 52.89 195.952 53.03C196.642 53.17 197.332 53.24 198.022 53.24C199.232 53.24 200.312 53.055 201.262 52.685C202.222 52.315 203.027 51.81 203.677 51.17C204.327 50.52 204.822 49.765 205.162 48.905C205.512 48.035 205.687 47.105 205.687 46.115C205.687 45.205 205.542 44.435 205.252 43.805C204.972 43.165 204.597 42.625 204.127 42.185C203.667 41.745 203.142 41.38 202.552 41.09C201.962 40.8 201.357 40.55 200.737 40.34C200.117 40.12 199.512 39.92 198.922 39.74C198.332 39.56 197.802 39.355 197.332 39.125C196.872 38.895 196.497 38.625 196.207 38.315C195.927 37.995 195.787 37.595 195.787 37.115C195.787 36.365 196.047 35.76 196.567 35.3C197.087 34.83 197.867 34.595 198.907 34.595C199.497 34.595 200.012 34.675 200.452 34.835C200.892 34.985 201.282 35.15 201.622 35.33C201.962 35.51 202.257 35.68 202.507 35.84C202.767 35.99 203.007 36.065 203.227 36.065C203.457 36.065 203.642 36.015 203.782 35.915ZM217.996 34.865H224.355V31.235H207.12V34.865H213.48V53H217.996V34.865ZM234.052 38.075L236.407 44.735H229.942L232.282 38.105C232.422 37.755 232.567 37.345 232.717 36.875C232.877 36.395 233.027 35.875 233.167 35.315C233.307 35.865 233.452 36.375 233.602 36.845C233.762 37.315 233.912 37.725 234.052 38.075ZM240.472 53H243.967L235.477 31.235H230.872L222.367 53H225.892C226.272 53 226.587 52.9 226.837 52.7C227.087 52.49 227.262 52.26 227.362 52.01L228.832 47.855H237.502L238.972 52.01C239.092 52.3 239.272 52.54 239.512 52.73C239.762 52.91 240.082 53 240.472 53ZM254.682 41.27C254.152 41.45 253.522 41.54 252.792 41.54H250.482V34.655H252.822C254.222 34.655 255.262 34.94 255.942 35.51C256.632 36.08 256.977 36.88 256.977 37.91C256.977 38.43 256.897 38.91 256.737 39.35C256.577 39.79 256.327 40.175 255.987 40.505C255.647 40.825 255.212 41.08 254.682 41.27ZM259.272 53H263.337L258.267 45.17C258.067 44.86 257.842 44.595 257.592 44.375C257.342 44.145 257.072 43.95 256.782 43.79C257.512 43.54 258.162 43.21 258.732 42.8C259.302 42.39 259.782 41.92 260.172 41.39C260.562 40.86 260.857 40.275 261.057 39.635C261.267 38.985 261.372 38.3 261.372 37.58C261.372 36.65 261.212 35.8 260.892 35.03C260.572 34.25 260.067 33.58 259.377 33.02C258.687 32.46 257.802 32.025 256.722 31.715C255.642 31.395 254.342 31.235 252.822 31.235H245.982V53H250.482V44.705H252.012C252.412 44.705 252.712 44.765 252.912 44.885C253.122 45.005 253.312 45.195 253.482 45.455L257.622 52.13C257.962 52.71 258.512 53 259.272 53Z" fill="white"/>
<path d="M332.481 90.9155C332.481 97.2611 337.616 102.409 343.959 102.424C350.303 102.442 355.464 97.3181 355.497 90.9744C355.529 84.6307 350.419 79.4558 344.075 79.4101C337.732 79.3606 332.546 84.4556 332.481 90.8012" fill="white"/>
<path d="M287.117 90.9155C287.117 97.2611 292.25 102.409 298.596 102.424C304.939 102.442 310.099 97.3181 310.131 90.9744C310.163 84.6307 305.055 79.4558 298.711 79.4101C292.366 79.3606 287.18 84.4556 287.117 90.8012" fill="white"/>
<path d="M293.927 71.7337H329.9L329.716 35.0863L357.837 34.9905L367.979 62.1633V87.9966C367.979 89.7951 366.813 91.4416 364.725 91.4416H358.987C354.63 74.0901 337.905 71.5109 330.474 86.0837H312.105C303.915 72.2359 285.109 74.7977 284.166 91.2739H279C279 84.3042 286.069 71.7343 293.928 71.7343L293.927 71.7337ZM364.586 60.5596L357.753 41.3762L340.487 41.323L340.434 58.008L364.586 60.5596Z" fill="white"/>
</svg>
