<svg width="128" height="128" viewBox="0 0 128 128" fill="none" xmlns="http://www.w3.org/2000/svg">
<path fill-rule="evenodd" clip-rule="evenodd" d="M24.3331 26.2424C23.838 26.7459 23.1878 26.9994 22.538 26.9994L22.5383 27C21.8898 27 21.2413 26.7465 20.7436 26.2438C19.7521 25.2346 19.7521 23.5989 20.7436 22.5897C31.8859 11.2468 46.7026 5 62.4625 5C63.8655 5 65 6.15621 65 7.58304C65 9.00986 63.8655 10.1674 62.4625 10.1674C48.0572 10.1674 34.5177 15.8747 24.3331 26.2424ZM17.5504 67C18.9596 67 20.1005 65.8612 20.1005 64.4575C20.1005 53.1378 24.5198 42.4986 32.5461 34.4963C40.5727 26.4934 51.2462 22.0863 62.5983 22.0863C73.9493 22.0863 84.6211 26.4937 92.6471 34.4963C93.6443 35.4892 95.2595 35.4892 96.2541 34.4963C97.2486 33.5034 97.2486 31.8942 96.2541 30.9013C87.264 21.9374 75.3115 17 62.5977 17C49.8829 17 37.9302 21.9366 28.9414 30.8991C19.9527 39.8617 15 51.7798 15 64.4571C15 65.8608 16.1434 66.9997 17.5501 66.9997L17.5504 67ZM89.0396 90.2506C88.5369 90.7479 87.8738 90.9989 87.2137 90.9989L87.214 91C86.5539 91 85.8912 90.7507 85.3873 90.2504C84.3768 89.2497 84.3768 87.6288 85.3873 86.6308C91.4773 80.6012 94.832 72.5798 94.832 64.0502C94.832 55.5201 91.4768 47.5001 85.3873 41.4697C79.2963 35.4375 71.196 32.1154 62.5841 32.1154C61.1561 32.1154 60 30.9705 60 29.5577C60 28.1449 61.1561 27 62.5841 27C72.5778 27 81.9715 30.8546 89.0396 37.8514C96.1076 44.8494 100 54.1544 100 64.051C100 73.9476 96.1076 83.2512 89.0396 90.2506ZM90 64C90 79.4393 77.439 92 61.9996 92C46.5602 92 34 79.4393 34 64C34 48.5607 46.5602 36 61.9996 36C77.439 36 90 48.5607 90 64ZM62.417 102C63.8452 102 65 100.839 65 99.4037C65 97.9662 63.8452 96.8047 62.417 96.8047C53.8018 96.8047 45.7036 93.4307 39.6122 87.3028C33.5204 81.1781 30.1668 73.0328 30.1668 64.3694C30.1668 55.7053 33.5204 47.561 39.6122 41.4361C40.6215 40.4211 40.6215 38.7749 39.6122 37.7612C38.6043 36.7463 36.9662 36.7463 35.9582 37.7612C28.891 44.8665 25 54.3179 25 64.3702C25 74.4226 28.8926 83.8708 35.9599 90.9792C43.0268 98.085 52.4218 102 62.4173 102L62.417 102ZM104.901 64.5426C104.901 63.1388 106.04 62 107.451 62L107.45 62.0001C108.857 62.0001 110 63.139 110 64.5427C110 77.2182 105.048 89.1366 96.058 98.0994C87.0673 107.062 75.1152 112 62.403 112C49.6908 112 37.7378 107.061 28.7469 98.0983C27.751 97.1067 27.751 95.4962 28.7469 94.5046C29.7427 93.5129 31.3578 93.5129 32.3523 94.5046C40.3792 102.508 51.0506 106.917 62.4022 106.917C73.7528 106.917 84.4245 102.508 92.4521 94.5046C100.481 86.5021 104.901 75.8615 104.901 64.5426ZM104.409 22.7436C103.401 21.7521 101.764 21.7521 100.756 22.7436C99.748 23.735 99.748 25.3418 100.756 26.3332C111.124 36.5188 116.834 50.0587 116.834 64.4612C116.834 65.8629 117.989 67 119.418 67C120.845 67 122 65.8629 122 64.4612C122 48.7031 115.754 33.8869 104.409 22.7439L104.409 22.7436ZM8.1685 64.5389C8.1685 63.1372 7.011 62 5.58425 62C4.15615 62 3 63.1372 3 64.5389C3 80.2975 9.24785 95.1141 20.5899 106.256C21.0951 106.753 21.7552 107 22.4158 107C23.0772 107 23.739 106.751 24.2429 106.256C25.2521 105.266 25.2521 103.658 24.2442 102.668C13.8772 92.4807 8.16791 78.9417 8.16791 64.5387L8.1685 64.5389ZM62.5388 118.831C76.9418 118.831 90.4809 113.123 100.667 102.758L100.667 102.758C101.659 101.748 103.265 101.748 104.258 102.757C105.248 103.765 105.248 105.402 104.255 106.41C93.1118 117.752 78.2963 124 62.5388 124C61.1358 124 60 122.845 60 121.416C60 119.989 61.1358 118.831 62.5388 118.831Z" fill="white"/>
</svg>
